<svg id="图层_1" data-name="图层 1" xmlns="http://www.w3.org/2000/svg" viewBox="0 0 28 28"><defs><style>.cls-1{fill:#7573e6;}</style></defs><title>课堂即时评价icon_单色</title><path class="cls-1" d="M21.49,21.53h-14a2,2,0,0,1-2-2v-10a2,2,0,0,1,2-2h14a2,2,0,0,1,2,2v10A2,2,0,0,1,21.49,21.53Zm-14-12v10h14v-10Z"/><path class="cls-1" d="M10.82,16.94a1,1,0,0,1-1-1v-.83a1,1,0,1,1,2,0v.83A1,1,0,0,1,10.82,16.94Z"/><path class="cls-1" d="M14.49,16.94a1,1,0,0,1-1-1V14.11a1,1,0,1,1,2,0v1.83A1,1,0,0,1,14.49,16.94Z"/><path class="cls-1" d="M18.16,16.94a1,1,0,0,1-1-1V13.11a1,1,0,0,1,2,0v2.83A1,1,0,0,1,18.16,16.94Z"/></svg>