<svg id="图层_1" data-name="图层 1" xmlns="http://www.w3.org/2000/svg" viewBox="0 0 28 28"><defs><style>.cls-1{fill:#b3b3b3;}.cls-2{fill:none;stroke:#b3b3b3;stroke-linecap:round;stroke-linejoin:round;stroke-width:2px;}</style></defs><title>课堂即时评价icon_单色</title><path class="cls-1" d="M14.07,5a7,7,0,0,1,7,7v8h-14V12a7,7,0,0,1,7-7m0-2h0a9,9,0,0,0-9,9V20.9A1.11,1.11,0,0,0,6.18,22H22a1.11,1.11,0,0,0,1.11-1.11V12a9,9,0,0,0-9-9Z"/><line class="cls-2" x1="24.07" y1="21" x2="4.07" y2="21"/><line class="cls-2" x1="16.08" y1="24" x2="12.08" y2="24"/></svg>