<svg id="图层_1" data-name="图层 1" xmlns="http://www.w3.org/2000/svg" viewBox="0 0 28 28"><defs><style>.cls-1{fill:#b3b3b3;fill-rule:evenodd;}</style></defs><title>课堂即时评价icon_单色</title><path class="cls-1" d="M23,20H9.81a3,3,0,1,0,0,2H23a1,1,0,1,0,0-2ZM7,22a1,1,0,1,1,1-1A1,1,0,0,1,7,22ZM7,10A3,3,0,0,0,9.81,8H23a1,1,0,1,0,0-2H9.81A3,3,0,1,0,7,10ZM7,6A1,1,0,1,1,6,7,1,1,0,0,1,7,6Zm16,7H20.81a3,3,0,0,0-5.63,0H5a1,1,0,0,0,0,2H15.18a3,3,0,0,0,5.63,0H23a1,1,0,1,0,0-2Zm-5,2a1,1,0,1,1,1-1A1,1,0,0,1,18,15Z"/></svg>