<svg id="图层_1" data-name="图层 1" xmlns="http://www.w3.org/2000/svg" viewBox="0 0 28 28"><defs><style>.cls-1{fill:#e6e5fc;}</style></defs><title>课堂即时评价icon_单色</title><path class="cls-1" d="M24.44,16.41l-.55-.32a9.93,9.93,0,0,0,.28-2.21,10,10,0,0,0-.22-2l.5-.29a2,2,0,0,0,.73-2.73l-1-1.73a2,2,0,0,0-2.73-.73L21,6.64a10,10,0,0,0-3.75-2.26V4a2,2,0,0,0-2-2h-2a2,2,0,0,0-2,2v.3A10,10,0,0,0,7.38,6.55l-.26-.15a2,2,0,0,0-2.73.73l-1,1.73a2,2,0,0,0,.73,2.73l.29.17a9.94,9.94,0,0,0-.25,2.11,9.92,9.92,0,0,0,.31,2.33l-.34.2a2,2,0,0,0-.73,2.73l1,1.73a2,2,0,0,0,2.73.73l.43-.25a10,10,0,0,0,3.73,2.1V24a2,2,0,0,0,2,2h2a2,2,0,0,0,2-2v-.63a10,10,0,0,0,3.57-2.11l.58.34a2,2,0,0,0,2.73-.73l1-1.73A2,2,0,0,0,24.44,16.41ZM14.27,18a4,4,0,1,1,4-4A4,4,0,0,1,14.27,18Z"/></svg>